<svg width="228" height="89" viewBox="0 0 228 89" fill="none" xmlns="http://www.w3.org/2000/svg">
<path d="M120.92 43.8608C120.585 43.8608 120.373 43.8608 120.161 43.8608C110.627 43.8608 101.09 43.8626 91.5558 43.8591C89.9262 43.8591 88.3315 43.6313 86.8123 43.0092C84.2468 41.956 82.6294 40.0828 82.0003 37.3824C81.55 35.4461 81.5482 33.494 82.0284 31.5682C82.8029 28.4578 84.8444 26.5565 87.8759 25.6628C89.1078 25.3 90.3713 25.1511 91.6575 25.1581C94.1475 25.1721 96.6376 25.1739 99.1277 25.1791C99.3362 25.1791 99.5448 25.1791 99.8321 25.1791C99.8321 24.9075 99.8321 24.7007 99.8321 24.494C99.8321 22.8345 99.8339 21.1768 99.8304 19.5173C99.8304 19.2632 99.8146 19.0074 99.7831 18.7551C99.5921 17.2165 98.6178 16.1966 97.0775 15.9618C96.5956 15.8882 96.1032 15.8654 95.6143 15.8619C93.38 15.8514 91.144 15.8567 88.9098 15.8567C88.6785 15.8567 88.4489 15.8567 88.1738 15.8567C88.1738 14.4776 88.1738 13.1493 88.1738 11.7702C88.3578 11.7545 88.5418 11.7264 88.7241 11.7264C92.4916 11.7247 96.2591 11.7089 100.027 11.7299C104.639 11.7545 108.182 15.338 108.184 19.9537C108.186 26.2481 108.184 32.5442 108.184 38.8386C108.184 39.0909 108.184 39.3433 108.184 39.6464C108.953 39.6464 109.68 39.6464 110.448 39.6464C110.458 39.4186 110.476 39.2119 110.476 39.0051C110.478 29.3497 110.481 19.6943 110.467 10.0389C110.465 9.34325 110.341 8.64582 110.243 7.95364C110.208 7.70656 110.097 7.46474 109.987 7.23694C109.621 6.49219 109.079 6.08915 108.18 6.09091C100.368 6.11193 92.5582 6.10317 84.7463 6.10317C82.682 6.10317 80.616 6.12595 78.5535 6.09266C77.6405 6.07689 77.0587 6.48868 76.6908 7.26672C76.3771 7.92911 76.2316 8.63355 76.2316 9.36778C76.2334 21.6184 76.2334 33.8672 76.2386 46.1178C76.2386 46.626 76.2562 47.1429 76.3508 47.6388C76.5436 48.6499 77.1621 49.3491 78.0926 49.7749C78.7217 50.0623 79.3841 50.1885 80.0745 50.1867C81.182 50.1832 82.2877 50.1867 83.3952 50.1867C95.5915 50.1867 107.786 50.1867 119.982 50.1867C120.257 50.1867 120.531 50.1867 120.792 50.1867C120.943 50.6704 120.978 53.4671 120.841 54.3591C120.59 54.3591 120.322 54.3591 120.054 54.3591C106.517 54.3591 92.9805 54.3591 79.4437 54.3591C78.2731 54.3591 77.099 54.4186 75.932 54.3521C73.3981 54.2084 71.0728 53.4724 69.2486 51.6061C67.8082 50.1307 67.0354 48.3363 67.0336 46.2633C67.0249 34.0144 67.0249 21.7638 67.0389 9.51498C67.0389 8.8193 67.109 8.1096 67.2544 7.42969C67.6487 5.60025 68.6703 4.1756 70.2089 3.11894C71.6388 2.13588 73.2404 1.57338 74.9349 1.30527C76.0231 1.13179 77.1323 1.01613 78.2328 1.01263C88.5138 0.991599 98.793 0.991603 109.074 1.00562C111.412 1.00913 113.691 1.38763 115.861 2.29359C116.33 2.48985 116.791 2.7194 117.228 2.97875C119.686 4.44195 120.906 6.62186 120.913 9.47292C120.922 14.0448 120.916 18.6184 120.916 23.1902C120.916 29.8035 120.916 36.4186 120.916 43.032C120.92 43.2808 120.92 43.5296 120.92 43.8608ZM99.7953 29.3479C99.5518 29.3479 99.3432 29.3479 99.1365 29.3479C96.9688 29.3479 94.7994 29.362 92.6318 29.3409C91.6943 29.3322 90.9443 29.6967 90.3047 30.3398C89.8333 30.8146 89.5109 31.3894 89.2813 32.0133C88.7749 33.3941 88.6049 34.8258 88.7942 36.2784C88.9957 37.8222 89.7492 38.9998 91.3123 39.4887C91.7504 39.6254 92.2305 39.685 92.6914 39.6885C94.88 39.7078 97.0704 39.699 99.2591 39.6955C99.4256 39.6955 99.5903 39.6762 99.7936 39.664C99.7953 36.2294 99.7953 32.8211 99.7953 29.3479Z" fill="white"/>
<path d="M136.741 34.8099C133.995 34.8099 131.278 34.8099 128.528 34.8099C128.507 34.6854 128.477 34.5856 128.474 34.4857C128.306 29.4705 129.124 24.648 131.463 20.1656C134.171 14.9786 138.464 11.7789 144.108 10.3455C146.597 9.71462 149.13 9.48156 151.696 9.49733C154.698 9.51485 157.698 9.50258 160.699 9.50258C160.952 9.50258 161.202 9.50258 161.437 9.50258C161.574 10.023 161.612 16.8817 161.491 17.8279C161.258 17.8367 161.013 17.8525 160.766 17.8525C156.764 17.8542 152.763 17.8542 148.762 17.8542C143.614 17.8525 139.317 20.9401 137.675 25.8186C136.918 28.0651 136.703 30.3835 136.741 32.7369C136.75 33.408 136.741 34.0844 136.741 34.8099Z" fill="white"/>
<path d="M192.049 55.9696C192.049 58.7558 192.049 61.4702 192.049 64.2248C191.9 64.2459 191.759 64.2879 191.621 64.2844C189.061 64.2318 186.529 63.9655 184.06 63.2505C177.658 61.4001 173.342 57.2908 170.97 51.1121C169.501 47.2885 168.956 43.3089 169.107 39.2277C169.109 39.1646 169.128 39.1033 169.139 39.042C169.582 38.9018 176.675 38.8702 177.418 39.0087C177.418 39.2102 177.425 39.417 177.417 39.6237C177.343 41.5391 177.332 43.4491 177.66 45.3469C177.89 46.6716 178.237 47.9596 178.796 49.1863C180.39 52.6927 183.145 54.7604 186.848 55.6331C188.434 56.0064 190.042 56.101 191.667 55.9888C191.768 55.9836 191.872 55.9801 192.049 55.9696Z" fill="white"/>
<path d="M177.375 34.8028C174.656 34.8028 171.922 34.8028 169.165 34.8028C169.143 34.7099 169.111 34.631 169.108 34.5522C168.945 30.1626 169.572 25.9009 171.302 21.8425C173.958 15.6094 178.642 11.7753 185.224 10.2245C187.283 9.73906 189.377 9.55507 191.485 9.49198C191.651 9.48673 191.818 9.50951 192.032 9.52352C192.032 12.2782 192.032 15.0066 192.032 17.7841C191.888 17.7841 191.748 17.7911 191.609 17.7823C189.638 17.6544 187.696 17.8279 185.809 18.4254C182.054 19.6152 179.573 22.1141 178.307 25.8273C177.493 28.2157 177.31 30.6865 177.389 33.1889C177.405 33.6778 177.422 34.1649 177.435 34.6538C177.433 34.6889 177.405 34.7274 177.375 34.8028Z" fill="white"/>
<path d="M30.7758 55.9657C30.7758 58.7555 30.7758 61.4716 30.7758 64.2105C30.6917 64.2368 30.6146 64.2841 30.5392 64.2841C26.4966 64.2315 22.5766 63.6042 18.937 61.7327C14.8102 59.6124 11.9504 56.318 10.114 52.1036C8.82775 49.1526 8.13907 46.051 7.92354 42.846C7.84819 41.7227 7.8552 40.596 7.83417 39.4692C7.83066 39.3063 7.87798 39.1415 7.90251 38.9663C10.6765 38.9663 13.4119 38.9663 16.2068 38.9663C16.1911 39.2502 16.1788 39.4973 16.163 39.7461C15.9983 42.4377 16.1385 45.103 16.9709 47.6912C18.4463 52.2788 21.6286 54.9126 26.3301 55.7835C27.781 56.0499 29.2425 56.0814 30.7758 55.9657Z" fill="white"/>
<path d="M30.7599 9.51342C30.7599 12.3189 30.7599 15.0526 30.7599 17.8125C29.2301 17.6863 27.7459 17.7214 26.2756 18C21.4392 18.92 18.2569 21.6939 16.8586 26.441C16.1349 28.8978 16.0069 31.4159 16.1541 33.9568C16.1699 34.2267 16.1874 34.4965 16.2067 34.8032C13.4152 34.8032 10.6781 34.8032 7.90939 34.8032C7.88135 34.6612 7.83404 34.5193 7.83054 34.3774C7.71663 29.7021 8.43334 25.1811 10.4573 20.9282C13.0998 15.3767 17.4649 11.9089 23.3913 10.3616C25.6466 9.77277 27.9491 9.54847 30.2727 9.48889C30.4199 9.48714 30.5654 9.50466 30.7599 9.51342Z" fill="white"/>
<path d="M1.14355 71.8947C1.14355 71.5688 1.14355 71.2358 1.14355 70.9046C1.61318 70.7767 226.726 70.7522 227.444 70.8853C227.444 71.2113 227.444 71.5425 227.444 71.8754C226.983 71.9998 1.85325 72.0261 1.14355 71.8947Z" fill="white"/>
<path d="M128.488 38.9604C131.28 38.9604 133.996 38.9604 136.754 38.9604C136.754 47.3296 136.754 55.6708 136.754 64.0504C133.999 64.0504 131.267 64.0504 128.488 64.0504C128.488 55.69 128.488 47.3506 128.488 38.9604Z" fill="white"/>
<path d="M34.9861 9.50781C43.145 9.50781 51.2706 9.50781 59.3874 9.50781C59.5328 9.97043 59.5714 16.985 59.433 17.8121C51.2969 17.8121 43.1537 17.8121 35.0106 17.8121C34.8722 17.3741 34.8406 10.2859 34.9861 9.50781Z" fill="white"/>
<path d="M196.243 9.52417C204.375 9.52417 212.515 9.52417 220.7 9.52417C220.7 12.2859 220.7 15.0178 220.7 17.7496C220.243 17.8776 197.44 17.9301 196.28 17.8075C196.15 17.3676 196.113 10.332 196.243 9.52417Z" fill="white"/>
<path d="M180.618 40.7606C180.618 37.9762 180.618 35.2425 180.618 32.4756C188.797 32.4756 196.937 32.4756 205.115 32.4756C205.115 35.246 205.115 37.9814 205.115 40.7606C196.96 40.7606 188.818 40.7606 180.618 40.7606Z" fill="white"/>
<path d="M34.9357 64.0532C34.9357 61.2897 34.9357 58.5613 34.9357 55.7961C43.1261 55.7961 51.2797 55.7961 59.4702 55.7961C59.4702 58.5596 59.4702 61.288 59.4702 64.0532C51.2815 64.0532 43.1261 64.0532 34.9357 64.0532Z" fill="white"/>
<path d="M220.712 55.8013C220.712 58.5489 220.712 61.2633 220.712 63.9777C220.276 64.1144 197.213 64.1652 196.214 64.0267C196.214 61.3036 196.214 58.5752 196.214 55.803C204.361 55.8013 212.497 55.8013 220.712 55.8013Z" fill="white"/>
<path d="M113.218 85.6406C112.41 85.6406 111.713 85.6406 110.944 85.6406C110.663 85.0062 110.376 84.3509 110.083 83.6973C109.954 83.4064 109.829 83.112 109.677 82.8333C109.51 82.5319 109.261 82.355 108.834 82.4846C108.834 83.5062 108.834 84.5384 108.834 85.6178C108.152 85.6178 107.527 85.6178 106.898 85.6178C106.77 85.1867 106.731 78.5191 106.861 77.6657C107.013 77.6517 107.176 77.6219 107.339 77.6219C108.296 77.6184 109.253 77.6131 110.208 77.6236C110.504 77.6271 110.8 77.6675 111.094 77.7025C111.883 77.7954 112.368 78.258 112.58 78.9975C112.759 79.6213 112.757 80.2574 112.528 80.8742C112.309 81.4648 111.888 81.8661 111.235 82.0974C111.858 82.5214 112.172 83.1032 112.424 83.734C112.666 84.3404 112.926 84.9414 113.218 85.6406ZM108.858 80.9198C109.305 80.8777 109.705 80.876 110.089 80.7954C110.514 80.706 110.669 80.4484 110.653 80.0051C110.639 79.5705 110.45 79.3269 110.006 79.2814C109.636 79.2428 109.258 79.2726 108.858 79.2726C108.858 79.8158 108.858 80.2995 108.858 80.9198Z" fill="white"/>
<path d="M174.501 83.8286C174.501 84.4577 174.501 85.0202 174.501 85.623C172.682 85.623 170.888 85.623 169.057 85.623C169.057 82.9594 169.057 80.3344 169.057 77.6621C170.842 77.6621 172.596 77.6621 174.399 77.6621C174.399 78.2053 174.399 78.7416 174.399 79.3391C173.299 79.3391 172.223 79.3391 171.096 79.3391C171.096 79.7877 171.096 80.1732 171.096 80.6183C172.114 80.6183 173.108 80.6183 174.151 80.6183C174.151 81.172 174.151 81.6697 174.151 82.2567C173.159 82.3093 172.144 82.248 171.091 82.2935C171.091 82.807 171.091 83.2836 171.091 83.8268C172.221 83.8286 173.339 83.8286 174.501 83.8286Z" fill="white"/>
<path d="M181.55 85.8329C181.867 85.8644 182.139 85.8855 182.408 85.9205C182.661 85.9538 182.911 86.0011 183.237 86.0554C183.237 86.0554 183.276 86.1062 183.302 86.1623C183.481 86.5391 183.779 86.7056 184.185 86.6179C184.611 86.5251 184.739 86.1799 184.769 85.7996C184.793 85.4859 184.774 85.167 184.774 84.7797C184.623 84.8866 184.511 84.962 184.404 85.0443C183.588 85.6734 182.613 85.542 181.998 84.7044C181.378 83.8598 181.327 82.8872 181.425 81.8971C181.46 81.5432 181.55 81.1787 181.692 80.8527C182.249 79.57 183.677 79.3265 184.657 80.327C184.7 80.3708 184.75 80.4094 184.849 80.4953C184.893 80.2885 184.93 80.1203 184.976 79.9065C185.484 79.9065 186.002 79.9065 186.572 79.9065C186.586 80.094 186.611 80.278 186.611 80.462C186.614 82.1425 186.618 83.823 186.607 85.5017C186.605 85.8171 186.567 86.1395 186.484 86.4445C186.253 87.3049 185.706 87.8638 184.797 87.9532C184.252 88.0075 183.689 88.0321 183.151 87.955C181.96 87.7867 181.48 87.1419 181.55 85.8329ZM184.862 82.5893C184.757 82.2967 184.693 81.9287 184.506 81.6413C184.208 81.1804 183.607 81.2312 183.379 81.7289C183.125 82.2879 183.125 82.8855 183.348 83.4602C183.453 83.7353 183.682 83.8983 183.993 83.8931C184.299 83.8878 184.529 83.7353 184.636 83.455C184.732 83.2026 184.776 82.9293 184.862 82.5893Z" fill="white"/>
<path d="M225.515 80.5215C225.551 80.2639 225.573 80.0869 225.6 79.8889C226.134 79.8889 226.639 79.8889 227.192 79.8889C227.21 80.0589 227.243 80.2201 227.243 80.3813C227.247 82.1039 227.247 83.8247 227.245 85.5472C227.245 85.7172 227.24 85.8889 227.219 86.0572C227.082 87.1419 226.481 87.8183 225.395 87.9567C224.794 88.0338 224.161 88.0145 223.563 87.9164C222.551 87.7517 222.069 86.9736 222.226 85.8399C222.764 85.9047 223.306 85.9713 223.856 86.0379C224.073 86.4462 224.355 86.7599 224.864 86.6074C225.379 86.4532 225.403 86.0063 225.424 85.5735C225.437 85.3299 225.426 85.0846 225.426 84.7324C225.2 84.9146 225.077 85.0233 224.946 85.1162C224.261 85.6051 223.365 85.5332 222.808 84.9059C222.587 84.657 222.391 84.3556 222.281 84.0437C221.925 83.0537 221.918 82.039 222.249 81.0402C222.565 80.0869 223.299 79.6138 224.256 79.7575C224.552 79.8013 224.834 79.9888 225.105 80.1395C225.242 80.2131 225.342 80.3551 225.515 80.5215ZM225.505 82.598C225.388 82.2861 225.317 81.8971 225.111 81.6027C224.813 81.1752 224.245 81.2435 224.028 81.7184C223.761 82.2984 223.751 82.924 224.019 83.5022C224.264 84.035 224.958 84.0367 225.235 83.5163C225.37 83.2657 225.403 82.9608 225.505 82.598Z" fill="white"/>
<path d="M56.1757 84.3858C56.0601 84.8116 55.9567 85.1971 55.8305 85.665C55.4958 85.665 55.1646 85.665 54.8317 85.665C54.5162 85.665 54.2008 85.665 53.7855 85.665C54.6109 82.9559 55.4117 80.3256 56.2213 77.6638C56.9573 77.6638 57.6705 77.6638 58.4555 77.6638C59.2581 80.2923 60.0659 82.9366 60.8895 85.637C60.1448 85.637 59.4929 85.637 58.799 85.637C58.6833 85.2252 58.5712 84.8221 58.4502 84.3876C57.709 84.3858 56.9713 84.3858 56.1757 84.3858ZM57.2639 79.9243C57.0431 80.8408 56.8398 81.6854 56.6296 82.5599C57.136 82.5599 57.5495 82.5599 58.0192 82.5599C57.8177 81.738 57.6284 80.9635 57.4321 80.1907C57.4129 80.1171 57.348 80.054 57.2639 79.9243Z" fill="white"/>
<path d="M7.32582 79.9841C6.70374 80.1558 6.15701 80.3065 5.58925 80.4625C5.48411 80.2487 5.41577 80.0717 5.31588 79.914C4.84801 79.1657 3.89999 79.15 3.41985 79.893C3.28492 80.1015 3.18679 80.3538 3.14298 80.5974C3.00455 81.3772 2.99929 82.164 3.18329 82.9385C3.33399 83.5764 3.71074 83.9163 4.25572 83.9461C4.8042 83.9759 5.18271 83.6903 5.42628 83.0542C5.50163 82.8597 5.56121 82.6599 5.65058 82.3988C6.22885 82.6126 6.77558 82.8141 7.30829 83.0121C7.21191 84.6698 6.10794 85.7598 4.53785 85.7948C2.76273 85.8351 1.7341 85.0992 1.24871 83.3924C0.903495 82.1798 0.910504 80.9496 1.2785 79.744C1.84976 77.869 3.71074 76.9841 5.55245 77.685C6.57932 78.0775 6.99988 78.9327 7.32582 79.9841Z" fill="white"/>
<path d="M64.7805 85.6563C64.7315 85.4162 64.6947 85.2392 64.6579 85.0622C64.6176 85.0395 64.5773 85.0167 64.537 84.9939C64.4704 85.1008 64.4196 85.2234 64.3319 85.3093C63.5557 86.0663 62.3763 85.9699 61.8191 85.043C61.5422 84.5838 61.374 84.0336 61.2653 83.5044C61.0919 82.6615 61.1637 81.8099 61.4809 81.0003C61.8576 80.0383 62.6672 79.5616 63.5872 79.7772C63.9026 79.8508 64.1917 80.047 64.5685 80.2223C64.5685 79.3706 64.5685 78.5365 64.5685 77.6621C65.2134 77.6621 65.7741 77.6621 66.3752 77.6621C66.3752 80.3116 66.3752 82.9331 66.3752 85.5932C65.867 85.7421 65.343 85.6388 64.7805 85.6563ZM62.9669 82.7982C63.0352 83.0838 63.0667 83.4518 63.2157 83.7673C63.4645 84.2947 64.0954 84.314 64.3635 83.797C64.7017 83.1469 64.6912 82.453 64.3828 81.7854C64.2601 81.5208 64.0235 81.3753 63.7116 81.4033C63.3927 81.4331 63.2192 81.6487 63.1333 81.9185C63.051 82.1744 63.0282 82.453 62.9669 82.7982Z" fill="white"/>
<path d="M102.44 85.6353C101.89 85.6353 101.387 85.6353 100.835 85.6353C100.807 85.4548 100.78 85.2743 100.751 85.0763C100.693 85.0903 100.616 85.0851 100.586 85.1201C100.32 85.4355 100.022 85.6949 99.5959 85.7667C98.8249 85.8981 98.1993 85.637 97.8208 84.9396C97.1076 83.6254 97.0725 82.241 97.621 80.8812C98.0976 79.6966 99.291 79.3935 100.353 80.0926C100.419 80.1365 100.488 80.1768 100.644 80.2749C100.644 79.3637 100.644 78.5313 100.644 77.6604C101.278 77.6604 101.837 77.6604 102.442 77.6604C102.44 80.3134 102.44 82.9367 102.44 85.6353ZM100.719 82.7912C100.633 82.4565 100.575 82.1026 100.449 81.7766C100.353 81.5313 100.123 81.3981 99.8395 81.3999C99.5468 81.4016 99.3506 81.5646 99.2594 81.8152C99.0264 82.4495 99.0141 83.0962 99.2612 83.7305C99.3576 83.9793 99.5538 84.1511 99.8377 84.1598C100.143 84.1686 100.381 84.0144 100.484 83.7375C100.591 83.4431 100.637 83.1294 100.719 82.7912Z" fill="white"/>
<path d="M149.52 80.4057C149.92 79.9833 150.377 79.71 150.969 79.724C151.669 79.7398 152.15 80.0359 152.376 80.7036C152.496 81.061 152.569 81.4483 152.578 81.825C152.604 82.9939 152.589 84.1627 152.587 85.3315C152.587 85.4138 152.564 85.4944 152.545 85.6189C151.968 85.6189 151.406 85.6189 150.799 85.6189C150.784 85.4524 150.754 85.2877 150.752 85.1247C150.747 84.3379 150.75 83.5529 150.749 82.7661C150.749 82.554 150.749 82.3402 150.722 82.13C150.675 81.7217 150.463 81.4851 150.156 81.4711C149.858 81.4571 149.571 81.6744 149.482 82.0423C149.419 82.3069 149.401 82.5891 149.398 82.8624C149.385 83.5634 149.396 84.2643 149.392 84.967C149.391 85.1755 149.375 85.384 149.364 85.6276C148.76 85.6276 148.199 85.6276 147.6 85.6276C147.6 82.9641 147.6 80.3391 147.6 77.6667C148.187 77.6667 148.746 77.6667 149.371 77.6667C149.371 78.5675 149.371 79.4506 149.371 80.3356C149.42 80.3583 149.469 80.3811 149.52 80.4057Z" fill="white"/>
<path d="M216.182 79.8878C216.745 79.8878 217.25 79.8878 217.791 79.8878C217.824 80.1086 217.856 80.3119 217.896 80.5835C218.05 80.4451 218.173 80.3487 218.28 80.2366C218.623 79.8738 219.047 79.7231 219.54 79.7266C220.246 79.7319 220.71 80.035 220.961 80.6904C221.029 80.8674 221.096 81.0584 221.096 81.2424C221.106 82.6828 221.103 84.1215 221.103 85.6057C220.556 85.7371 219.992 85.632 219.38 85.6618C219.361 85.4638 219.333 85.3026 219.331 85.1414C219.326 84.2915 219.328 83.4416 219.324 82.5917C219.323 82.4007 219.317 82.2079 219.289 82.0204C219.244 81.7155 219.067 81.5052 218.751 81.4825C218.445 81.4597 218.203 81.6139 218.117 81.91C218.036 82.1922 217.982 82.4901 217.973 82.7827C217.952 83.5047 217.965 84.2266 217.965 84.9503C217.965 85.1589 217.965 85.3674 217.965 85.6215C217.342 85.6215 216.782 85.6215 216.181 85.6215C216.182 83.722 216.182 81.8417 216.182 79.8878Z" fill="white"/>
<path d="M192.571 85.631C191.945 85.631 191.4 85.631 190.859 85.631C190.717 85.1771 190.685 80.6473 190.822 79.9008C191.334 79.9008 191.854 79.9008 192.411 79.9008C192.432 80.1269 192.453 80.3301 192.48 80.614C192.641 80.4616 192.762 80.3599 192.869 80.2478C193.34 79.7484 193.929 79.6485 194.567 79.7711C195.042 79.8623 195.371 80.1742 195.527 80.6158C195.651 80.9715 195.748 81.3553 195.757 81.7285C195.785 82.9376 195.769 84.1485 195.765 85.3576C195.765 85.4382 195.734 85.5171 195.711 85.6292C195.133 85.6292 194.57 85.6292 193.934 85.6292C193.934 85.3891 193.934 85.1824 193.934 84.9756C193.934 84.1905 193.936 83.4055 193.931 82.6204C193.929 82.4084 193.917 82.1946 193.882 81.9879C193.836 81.711 193.663 81.5235 193.38 81.4832C193.095 81.4411 192.853 81.576 192.762 81.8301C192.655 82.1228 192.592 82.4435 192.581 82.7554C192.555 83.4966 192.571 84.2414 192.571 84.9843C192.571 85.1859 192.571 85.3926 192.571 85.631Z" fill="white"/>
<path d="M78.2236 85.6264C78.0974 85.6387 77.952 85.6614 77.8083 85.6632C77.4281 85.6684 77.0478 85.6649 76.6728 85.6649C76.5712 85.4564 76.4923 85.2917 76.3854 85.0744C75.8282 85.6229 75.1903 85.8419 74.4543 85.7911C73.6237 85.735 73.0665 85.2777 72.9298 84.5119C72.7598 83.5604 73.1033 82.8577 73.9286 82.5545C74.365 82.3933 74.8293 82.3092 75.2762 82.1708C75.6354 82.0604 75.9859 81.922 76.3241 81.8028C76.3346 81.3998 76.2557 81.1369 75.8895 81.0563C75.4251 80.9547 75.0869 81.1281 74.7067 81.7117C74.2002 81.6503 73.6588 81.5855 73.1226 81.5189C73.1138 80.7146 73.4853 80.1328 74.2248 79.905C75.1377 79.6229 76.0752 79.6527 76.9935 79.898C77.4508 80.0207 77.7785 80.3501 77.9064 80.804C78.0203 81.2087 78.0974 81.6328 78.1167 82.0516C78.15 82.7718 78.115 83.4973 78.1307 84.2193C78.1377 84.6609 78.1868 85.1024 78.2236 85.6264ZM76.3767 82.898C75.8369 83.1083 75.4339 83.2362 75.0606 83.422C74.7365 83.5849 74.6366 83.9354 74.7662 84.2315C74.8889 84.5154 75.2113 84.6258 75.5793 84.5101C75.9281 84.4015 76.1751 84.1772 76.261 83.8232C76.3223 83.5656 76.3293 83.2923 76.3767 82.898Z" fill="white"/>
<path d="M134.493 81.8275C134.553 81.3894 134.455 81.1406 134.094 81.0565C133.633 80.9479 133.305 81.1196 132.908 81.7084C132.403 81.647 131.865 81.5804 131.33 81.5156C131.327 80.7025 131.712 80.1172 132.441 79.8965C133.314 79.6318 134.204 79.6651 135.086 79.8649C135.627 79.9876 135.983 80.3486 136.141 80.8708C136.237 81.1914 136.288 81.5331 136.309 81.8696C136.337 82.3357 136.307 82.8036 136.319 83.2697C136.339 84.0477 136.372 84.8258 136.4 85.6336C135.932 85.6336 135.408 85.6336 134.858 85.6336C134.776 85.4601 134.697 85.2937 134.588 85.0659C134.026 85.6494 133.36 85.8491 132.603 85.7861C131.793 85.7195 131.274 85.2621 131.124 84.456C130.966 83.6097 131.309 82.8789 132.063 82.5793C132.494 82.4076 132.958 82.3234 133.405 82.1885C133.768 82.0781 134.125 81.9502 134.493 81.8275ZM134.548 82.9262C134.085 83.0945 133.724 83.2014 133.382 83.3556C132.967 83.5431 132.818 83.9373 132.997 84.279C133.149 84.5717 133.591 84.6821 133.938 84.442C134.164 84.2861 134.358 84.0337 134.471 83.7814C134.565 83.5676 134.521 83.2925 134.548 82.9262Z" fill="white"/>
<path d="M29.7402 83.3233C28.5171 83.3233 27.3728 83.3233 26.1952 83.3233C26.1391 83.8087 26.2916 84.1504 26.6666 84.3817C26.996 84.585 27.2922 84.5114 27.704 84.1837C27.8126 84.0978 27.9546 83.9874 28.0755 83.9944C28.5749 84.0277 29.0726 84.1031 29.6228 84.1679C29.2513 85.0879 28.6555 85.6224 27.732 85.7468C27.4394 85.7871 27.138 85.7888 26.8418 85.7836C25.6169 85.7591 24.8967 85.2526 24.4919 84.0996C24.1643 83.1638 24.1678 82.2141 24.548 81.2959C24.9598 80.3023 25.7081 79.7485 26.8085 79.7293C27.0416 79.7258 27.2764 79.731 27.5095 79.7538C28.3874 79.8344 29.0235 80.2742 29.3967 81.0715C29.7174 81.7602 29.7998 82.4874 29.7402 83.3233ZM27.8582 82.1878C27.7951 81.387 27.534 81.04 27.0416 81.0383C26.5299 81.0365 26.2162 81.4518 26.204 82.1878C26.7437 82.1878 27.2834 82.1878 27.8582 82.1878Z" fill="white"/>
<path d="M118.756 83.3093C117.564 83.3093 116.404 83.3093 115.25 83.3093C115.143 83.6651 115.258 83.9139 115.421 84.1364C115.74 84.5745 116.252 84.6254 116.686 84.21C116.905 83.9998 117.111 83.9665 117.372 84.0033C117.769 84.0576 118.169 84.1067 118.658 84.1697C118.381 84.8584 117.983 85.3771 117.305 85.6102C116.544 85.873 115.758 85.873 114.983 85.6575C114.266 85.4577 113.849 84.9197 113.587 84.2696C113.189 83.2831 113.178 82.272 113.583 81.2871C113.981 80.3164 114.717 79.7696 115.787 79.7346C116.084 79.7258 116.385 79.7328 116.678 79.7714C117.396 79.8642 117.953 80.227 118.314 80.8578C118.738 81.6008 118.838 82.4069 118.756 83.3093ZM116.883 82.1966C116.83 81.3748 116.536 81.0085 116.014 81.0418C115.497 81.0751 115.19 81.55 115.279 82.1966C115.8 82.1966 116.322 82.1966 116.883 82.1966Z" fill="white"/>
<path d="M14.3765 79.8906C14.925 79.8906 15.4297 79.8906 15.9711 79.8906C16.0097 80.1132 16.0482 80.3357 16.0868 80.5565C16.1253 80.5881 16.1639 80.6196 16.2024 80.6512C16.2778 80.5285 16.3374 80.3918 16.432 80.2832C16.7895 79.8679 17.2556 79.7119 17.7971 79.7224C18.4419 79.7364 18.887 80.0431 19.1341 80.6249C19.2165 80.8176 19.2918 81.0314 19.2936 81.2364C19.3076 82.6769 19.3006 84.1173 19.3006 85.5998C18.7538 85.7207 18.1913 85.6436 17.578 85.6506C17.557 85.4648 17.5255 85.3054 17.5237 85.1459C17.5185 84.296 17.522 83.4461 17.5202 82.5963C17.5202 82.4053 17.5185 82.2125 17.4887 82.025C17.4413 81.7253 17.2749 81.5045 16.9577 81.4748C16.6493 81.4467 16.404 81.6062 16.3163 81.8953C16.2252 82.195 16.1727 82.5157 16.1621 82.8293C16.1376 83.5075 16.1499 84.1891 16.1481 84.8673C16.1481 85.0986 16.1481 85.3299 16.1481 85.6103C15.5418 85.6103 14.9828 85.6103 14.3748 85.6103C14.3765 83.7283 14.3765 81.8498 14.3765 79.8906Z" fill="white"/>
<path d="M208.116 83.3203C207.542 83.3203 206.953 83.3203 206.362 83.3203C205.791 83.3203 205.22 83.3203 204.645 83.3203C204.566 83.7181 204.698 84.0002 204.922 84.2385C205.23 84.568 205.688 84.582 206.064 84.2561C206.247 84.0984 206.392 83.9231 206.664 83.9915C206.704 84.002 206.748 83.9985 206.79 84.0037C207.188 84.0563 207.585 84.1071 207.985 84.1597C207.85 84.943 207.17 85.6071 206.289 85.7263C205.768 85.7964 205.225 85.7876 204.701 85.7315C204.104 85.6685 203.625 85.3408 203.304 84.8238C202.533 83.5832 202.504 82.2899 203.138 81.0002C203.532 80.1977 204.233 79.7753 205.137 79.7368C205.455 79.7228 205.777 79.7298 206.091 79.7718C206.809 79.8647 207.358 80.2345 207.729 80.8583C208.122 81.5084 208.272 82.4196 208.116 83.3203ZM206.313 82.1901C206.227 81.3559 205.936 81.002 205.425 81.0405C204.939 81.0791 204.663 81.4734 204.643 82.1901C205.186 82.1901 205.728 82.1901 206.313 82.1901Z" fill="white"/>
<path d="M96.6941 83.3233C95.4202 83.3233 94.2601 83.3233 93.0352 83.3233C93.0878 83.5721 93.0965 83.7648 93.1684 83.9313C93.419 84.5218 94.0446 84.6883 94.5194 84.2467C94.7735 84.0102 95.0101 83.9629 95.3168 84.0119C95.6883 84.0715 96.0615 84.1171 96.5171 84.1784C96.235 84.8916 95.8214 85.3928 95.1415 85.6241C94.4423 85.8624 93.7099 85.8747 93.0019 85.6994C91.8804 85.4208 91.3968 84.5394 91.2513 83.502C91.1655 82.8869 91.211 82.221 91.3512 81.6147C91.6263 80.4249 92.5376 79.7607 93.7554 79.7257C95.4184 79.6784 96.3454 80.4442 96.589 82.0896C96.645 82.4628 96.6556 82.8431 96.6941 83.3233ZM94.7385 82.193C94.749 81.4518 94.4494 81.0347 93.9307 81.0364C93.419 81.0382 93.1123 81.4623 93.1123 82.193C93.6555 82.193 94.197 82.193 94.7385 82.193Z" fill="white"/>
<path d="M13.5292 83.3197C12.2623 83.3197 11.1005 83.3197 9.87559 83.3197C9.92816 83.5668 9.94218 83.756 10.0123 83.9243C10.2594 84.5148 10.8902 84.6883 11.3581 84.2502C11.6122 84.0119 11.847 83.9646 12.1536 84.0101C12.5269 84.0679 12.9019 84.1135 13.2769 84.1661C13.1507 84.8337 12.6548 85.4137 11.9977 85.6223C11.2529 85.8588 10.4837 85.8834 9.7354 85.6643C8.73657 85.3734 8.31075 84.5674 8.10923 83.6369C7.95503 82.9254 7.97956 82.1982 8.21087 81.4955C8.57711 80.381 9.42174 79.7572 10.5923 79.7256C12.2816 79.6783 13.2103 80.4634 13.4398 82.1474C13.4872 82.4996 13.4942 82.8588 13.5292 83.3197ZM11.5806 82.1929C11.5894 81.4447 11.295 81.0382 10.771 81.0417C10.2558 81.0452 9.96145 81.45 9.95269 82.1929C10.4959 82.1929 11.0374 82.1929 11.5806 82.1929Z" fill="white"/>
<path d="M126.821 83.3187C126.893 83.599 126.916 83.769 126.981 83.9197C127.238 84.5155 127.864 84.696 128.323 84.2491C128.602 83.9775 128.863 83.974 129.183 84.0196C129.537 84.0687 129.891 84.1142 130.333 84.1738C130.06 84.8782 129.653 85.3882 128.973 85.616C128.232 85.8648 127.468 85.8631 126.711 85.6685C126.041 85.4968 125.623 85.0237 125.342 84.4261C124.916 83.5219 124.89 82.5739 125.153 81.6277C125.5 80.3747 126.39 79.7246 127.685 79.7246C128.453 79.7246 129.168 79.863 129.714 80.4641C130.312 81.1212 130.601 82.3303 130.375 83.3187C129.227 83.3187 128.065 83.3187 126.821 83.3187ZM128.567 82.1884C128.549 81.4594 128.293 81.0792 127.817 81.0424C127.289 81.0021 126.967 81.3876 126.888 82.1884C127.45 82.1884 128.008 82.1884 128.567 82.1884Z" fill="white"/>
<path d="M202.056 83.3062C200.88 83.3062 199.718 83.3062 198.525 83.3062C198.479 83.7547 198.621 84.0667 198.905 84.3102C199.221 84.5819 199.643 84.5678 199.993 84.2209C200.205 84.0106 200.409 83.9598 200.673 84.0018C200.884 84.0351 201.094 84.0632 201.304 84.0895C201.493 84.1122 201.683 84.1297 201.96 84.1595C201.732 84.8237 201.355 85.3126 200.745 85.5579C199.911 85.8961 199.038 85.8961 198.185 85.6192C197.533 85.4072 197.146 84.8868 196.908 84.277C196.513 83.2676 196.496 82.2407 196.925 81.2384C197.33 80.2939 198.057 79.7769 199.098 79.7331C199.289 79.7244 199.48 79.7279 199.671 79.7401C200.843 79.8155 201.609 80.4253 201.928 81.5538C202.086 82.1076 202.149 82.6701 202.056 83.3062ZM200.219 82.1882C200.153 81.3873 199.885 81.0334 199.373 81.0386C198.872 81.0439 198.565 81.4539 198.539 82.1882C199.098 82.1882 199.657 82.1882 200.219 82.1882Z" fill="white"/>
<path d="M81.011 85.6299C80.3661 85.6299 79.8212 85.6299 79.2394 85.6299C79.2394 83.7181 79.2394 81.8396 79.2394 79.912C79.7668 79.912 80.2855 79.912 80.8393 79.912C80.8656 80.11 80.8936 80.3133 80.9321 80.6007C81.0793 80.471 81.2003 80.3799 81.3019 80.2695C81.8083 79.728 82.4427 79.6106 83.1156 79.7981C83.7902 79.9874 84.0566 80.5534 84.1582 81.1947C84.2073 81.5067 84.209 81.8291 84.2108 82.1463C84.216 83.2888 84.2125 84.4313 84.2125 85.6194C83.5974 85.6194 83.0367 85.6194 82.3883 85.6194C82.3883 85.3443 82.3883 85.0762 82.3883 84.8081C82.3883 84.023 82.3936 83.238 82.3866 82.4512C82.3813 81.8098 82.1851 81.4944 81.8031 81.4699C81.4035 81.4436 81.1039 81.7765 81.0548 82.4074C81.0057 83.04 81.0198 83.6796 81.0127 84.3157C81.0057 84.7362 81.011 85.1568 81.011 85.6299Z" fill="white"/>
<path d="M177.316 85.644C176.669 85.644 176.14 85.644 175.618 85.644C175.476 85.1831 175.446 80.6463 175.583 79.8998C176.096 79.8998 176.617 79.8998 177.153 79.8998C177.181 80.1328 177.205 80.3361 177.242 80.6253C177.428 80.443 177.554 80.3168 177.684 80.1924C178.178 79.7158 178.777 79.6422 179.408 79.7894C179.773 79.8735 180.06 80.1188 180.218 80.4623C180.332 80.7094 180.416 80.9775 180.467 81.2456C180.514 81.4944 180.514 81.7538 180.516 82.0078C180.521 83.1959 180.517 84.3823 180.517 85.6177C179.908 85.6177 179.345 85.6177 178.733 85.6177C178.721 85.4302 178.698 85.2444 178.697 85.0604C178.693 84.1667 178.702 83.273 178.69 82.3811C178.683 81.7906 178.474 81.4909 178.097 81.4699C177.728 81.4506 177.431 81.745 177.377 82.2917C177.319 82.8612 177.328 83.4378 177.319 84.0108C177.309 84.5382 177.316 85.0639 177.316 85.644Z" fill="white"/>
<path d="M159.813 79.8911C160.041 79.8806 160.228 79.8648 160.416 79.8631C160.733 79.8596 161.049 79.8613 161.402 79.8613C161.431 80.1101 161.452 80.3134 161.485 80.6043C161.634 80.4694 161.755 80.3783 161.856 80.2679C162.361 79.7194 162.997 79.6142 163.672 79.7982C164.292 79.9682 164.565 80.4764 164.688 81.0739C164.706 81.1563 164.737 81.2404 164.737 81.3228C164.741 82.7422 164.739 84.1616 164.739 85.6213C164.148 85.6213 163.588 85.6213 162.96 85.6213C162.96 84.9378 162.962 84.2842 162.96 83.6306C162.959 83.1838 162.974 82.7369 162.943 82.2918C162.904 81.7398 162.683 81.4717 162.322 81.4665C161.975 81.4629 161.707 81.7451 161.62 82.248C161.576 82.4968 161.576 82.7562 161.574 83.0103C161.569 83.8584 161.572 84.7065 161.572 85.5862C160.978 85.7194 160.416 85.6563 159.813 85.6318C159.813 83.7287 159.813 81.8467 159.813 79.8911Z" fill="white"/>
<path d="M43.6049 79.7266C44.9857 79.7248 45.9443 80.4958 46.2352 81.8451C46.3894 82.5654 46.3718 83.2803 46.137 83.9795C45.7428 85.1553 44.8824 85.7774 43.654 85.7897C42.4151 85.8019 41.5284 85.2079 41.1078 84.0618C40.7889 83.1927 40.7959 82.3095 41.1166 81.4456C41.5336 80.3189 42.4081 79.7283 43.6049 79.7266ZM44.5442 82.7932C44.4635 82.4304 44.4425 82.0554 44.2953 81.74C44.0044 81.1144 43.2597 81.0881 42.9443 81.6979C42.585 82.3936 42.6061 83.1331 42.9267 83.8481C43.0582 84.139 43.314 84.3002 43.6435 84.2879C43.9466 84.2756 44.1884 84.1127 44.2866 83.8393C44.4075 83.5064 44.46 83.1489 44.5442 82.7932Z" fill="white"/>
<path d="M124.146 81.2645C123.591 81.3346 123.07 81.3994 122.539 81.466C122.324 81.1698 122.134 80.8807 121.73 80.9017C121.404 80.9175 121.186 81.0437 121.157 81.2925C121.122 81.5939 121.33 81.7078 121.567 81.7691C121.814 81.834 122.068 81.8673 122.317 81.9163C122.525 81.9584 122.735 81.9917 122.939 82.0477C123.838 82.3001 124.307 82.8661 124.337 83.7177C124.369 84.6009 123.876 85.3614 123.033 85.6278C122.18 85.8976 121.302 85.8801 120.459 85.591C119.8 85.3649 119.471 84.8235 119.327 84.0717C119.9 83.9946 120.457 83.921 121.03 83.8439C121.134 84.0051 121.213 84.1541 121.316 84.282C121.57 84.5921 122.022 84.692 122.348 84.473C122.487 84.3801 122.634 84.1786 122.63 84.0296C122.627 83.8842 122.466 83.6844 122.322 83.6143C122.078 83.4952 121.794 83.4601 121.528 83.3883C121.22 83.3059 120.906 83.2446 120.606 83.1377C119.904 82.8889 119.53 82.3369 119.518 81.5781C119.506 80.7791 119.86 80.164 120.559 79.9152C121.362 79.6295 122.196 79.6313 123.007 79.8731C123.659 80.0659 123.983 80.5793 124.146 81.2645Z" fill="white"/>
<path d="M90.4471 81.7081C89.8828 81.801 89.3676 81.8868 88.8927 81.9657C88.8121 81.9026 88.7666 81.8833 88.7508 81.85C88.5493 81.4137 88.2268 81.1789 87.7344 81.2788C87.2473 81.3769 87.0283 81.7449 86.9739 82.19C86.9266 82.5843 86.9214 82.9943 86.9652 83.3886C87.016 83.8407 87.2578 84.1877 87.745 84.2805C88.1673 84.3611 88.4634 84.1719 88.7438 83.6655C88.7736 83.6111 88.7999 83.5516 88.8647 83.4166C89.3957 83.4815 89.9512 83.5498 90.5101 83.6199C90.2981 84.9639 89.4587 85.7297 88.1901 85.7823C88.0832 85.7875 87.978 85.784 87.8711 85.7875C85.9103 85.8489 85.1638 84.4698 85.1042 83.1906C85.0832 82.728 85.1094 82.2531 85.1935 81.7975C85.4249 80.5533 86.3291 79.791 87.5855 79.7297C87.7555 79.7209 87.9255 79.7209 88.0954 79.728C89.3816 79.7875 90.0633 80.336 90.4471 81.7081Z" fill="white"/>
<path d="M146.771 81.7077C146.209 81.8006 145.693 81.8864 145.219 81.9653C145.138 81.904 145.089 81.8847 145.075 81.8514C144.877 81.4098 144.551 81.1837 144.06 81.2784C143.57 81.373 143.354 81.7445 143.296 82.1878C143.245 82.5821 143.245 82.9904 143.287 83.3864C143.335 83.842 143.582 84.1855 144.064 84.2854C144.477 84.3713 144.787 84.1715 145.066 83.6721C145.106 83.6002 145.143 83.5284 145.191 83.439C145.396 83.4513 145.585 83.4495 145.772 83.4758C146.126 83.5231 146.477 83.5845 146.827 83.6405C146.64 84.9285 145.804 85.7188 144.581 85.7801C144.306 85.7941 144.027 85.7889 143.752 85.7679C142.672 85.6837 141.866 85.0512 141.568 84.0085C141.323 83.1534 141.328 82.2825 141.616 81.4343C141.97 80.3864 142.746 79.8029 143.845 79.7363C144.036 79.724 144.227 79.7223 144.418 79.7311C145.706 79.7889 146.379 80.3304 146.771 81.7077Z" fill="white"/>
<path d="M40.7937 78.9175C39.8141 78.8894 39.6827 79.0174 39.8036 79.8199C40.0454 79.848 40.2925 79.8778 40.5694 79.9093C40.5694 80.4105 40.5694 80.8906 40.5694 81.4093C40.31 81.4444 40.0647 81.4776 39.7511 81.5215C39.7511 82.8725 39.7511 84.2201 39.7511 85.6149C39.1185 85.6149 38.5595 85.6149 37.9251 85.6149C37.9251 84.2586 37.9251 82.9093 37.9251 81.5407C37.6745 81.4917 37.4923 81.4566 37.2662 81.4128C37.2662 80.9327 37.2662 80.4543 37.2662 79.9303C37.4467 79.89 37.643 79.848 37.8901 79.7937C37.9076 79.5238 37.9199 79.2522 37.9444 78.9823C38.0425 77.959 38.5419 77.4841 39.56 77.4876C40.0016 77.4893 40.4432 77.5612 40.9654 77.6067C40.9041 78.0641 40.8515 78.4706 40.7937 78.9175Z" fill="white"/>
<path d="M67.0052 79.8887C67.6992 79.8887 68.2669 79.8887 68.882 79.8887C69.1729 81.0242 69.4603 82.1457 69.7459 83.2689C69.7827 83.2689 69.8213 83.2707 69.8581 83.2707C70.1507 82.1544 70.4451 81.04 70.7447 79.8992C71.3405 79.8992 71.9065 79.8992 72.5619 79.8992C71.896 81.832 71.2442 83.7228 70.587 85.6328C70.0491 85.6328 69.5444 85.6328 68.9521 85.6328C68.3177 83.7613 67.6746 81.8636 67.0052 79.8887Z" fill="white"/>
<path d="M22.6079 79.8115C22.9864 79.8448 23.2756 79.8711 23.6015 79.8992C23.6015 80.4144 23.6015 80.912 23.6015 81.4255C23.2773 81.457 22.9882 81.4868 22.6395 81.5201C22.6395 82.2859 22.6202 83.0218 22.6465 83.7578C22.6605 84.1381 22.8094 84.2327 23.1844 84.1977C23.2861 84.1889 23.3842 84.1538 23.5752 84.11C23.6138 84.6217 23.6488 85.0931 23.6856 85.5855C23.025 85.8413 22.3924 85.8431 21.7668 85.7187C21.3392 85.6328 21.0606 85.3139 20.966 84.8933C20.8819 84.5236 20.8381 84.1398 20.8275 83.7613C20.8065 83.0411 20.8223 82.3192 20.8223 81.5692C20.6032 81.5078 20.4105 81.4535 20.1897 81.3904C20.1897 80.905 20.1897 80.4249 20.1897 79.9044C20.386 79.8746 20.5665 79.8484 20.7925 79.8133C20.81 79.4611 20.8258 79.1281 20.8451 78.7549C21.3865 78.4149 21.9403 78.068 22.6097 77.6492C22.6079 78.429 22.6079 79.1071 22.6079 79.8115Z" fill="white"/>
<path d="M137.471 79.8921C138.018 79.8921 138.521 79.8921 139.064 79.8921C139.098 80.0866 139.129 80.2776 139.164 80.4914C139.974 79.5994 140.305 79.5241 141.143 80.062C140.976 80.5387 140.806 81.0311 140.627 81.5463C140.508 81.5305 140.429 81.5217 140.351 81.5077C139.86 81.4166 139.601 81.5165 139.481 81.9896C139.348 82.5188 139.29 83.0726 139.259 83.6193C139.222 84.2712 139.25 84.9248 139.25 85.6205C138.632 85.6205 138.071 85.6205 137.47 85.6205C137.471 83.7262 137.471 81.8477 137.471 79.8921Z" fill="white"/>
<path d="M210.882 85.6321C210.26 85.6321 209.715 85.6321 209.172 85.6321C209.048 85.173 209.021 80.6905 209.142 79.902C209.656 79.902 210.176 79.902 210.719 79.902C210.744 80.0982 210.765 80.2822 210.802 80.5766C211.098 80.1718 211.306 79.7425 211.818 79.7337C212.167 79.7267 212.491 79.7793 212.78 80.0754C212.608 80.5591 212.435 81.0515 212.263 81.5334C211.38 81.3932 211.107 81.5719 210.996 82.4446C210.91 83.1157 210.912 83.7974 210.886 84.4756C210.872 84.833 210.882 85.194 210.882 85.6321Z" fill="white"/>
<path d="M47.2748 79.8941C47.839 79.8941 48.3595 79.8941 48.8957 79.8941C48.9185 80.1044 48.9377 80.2849 48.9605 80.4916C49.7508 79.6032 50.1013 79.5244 50.9389 80.0606C50.7724 80.539 50.6007 81.0296 50.4237 81.5378C50.3081 81.5255 50.2275 81.5203 50.1504 81.5063C49.6562 81.4186 49.4109 81.5185 49.2795 81.9881C49.155 82.4315 49.0902 82.9011 49.0692 83.362C49.0359 84.098 49.0604 84.8374 49.0604 85.619C48.4383 85.619 47.8793 85.619 47.2783 85.619C47.2748 83.7265 47.2748 81.848 47.2748 79.8941Z" fill="white"/>
<path d="M32.4163 85.6262C31.8223 85.6262 31.2633 85.6262 30.6675 85.6262C30.6675 83.7144 30.6675 81.8359 30.6675 79.9101C31.1984 79.9101 31.7171 79.9101 32.2796 79.9101C32.3024 80.0818 32.3252 80.2623 32.355 80.5007C32.4321 80.4358 32.4952 80.399 32.5337 80.3447C33.0612 79.614 33.5431 79.5316 34.3281 80.0748C34.1581 80.555 33.9847 81.0456 33.8077 81.5503C33.685 81.531 33.6044 81.5188 33.5238 81.5048C33.0507 81.4224 32.8229 81.5082 32.6862 81.9481C32.5583 82.3686 32.4864 82.8155 32.4619 83.2553C32.4251 83.9107 32.4514 84.5696 32.4479 85.2267C32.4479 85.3476 32.4286 85.4703 32.4163 85.6262Z" fill="white"/>
<path d="M156.822 79.8999C157.406 79.8999 157.965 79.8999 158.564 79.8999C158.564 81.8135 158.564 83.6885 158.564 85.6301C158.265 85.6423 157.977 85.6563 157.69 85.6616C157.416 85.6668 157.143 85.6633 156.822 85.6633C156.822 83.72 156.822 81.8275 156.822 79.8999Z" fill="white"/>
<path d="M187.792 85.6104C187.792 83.7039 187.792 81.8411 187.792 79.9398C188.362 79.7962 188.922 79.8733 189.53 79.889C189.53 81.7956 189.53 83.6758 189.53 85.6104C188.984 85.6104 188.423 85.6104 187.792 85.6104Z" fill="white"/>
<path d="M213.214 79.8906C213.803 79.8906 214.346 79.8906 214.933 79.8906C214.933 81.7989 214.933 83.6809 214.933 85.6015C214.378 85.7189 213.817 85.6593 213.214 85.6348C213.214 83.7283 213.214 81.848 213.214 79.8906Z" fill="white"/>
<path d="M156.802 77.6375C157.427 77.6375 157.956 77.6375 158.514 77.6375C158.666 78.1228 158.614 78.5977 158.554 79.1059C157.979 79.1059 157.433 79.1059 156.852 79.1059C156.702 78.6363 156.788 78.1649 156.802 77.6375Z" fill="white"/>
<path d="M213.213 79.086C213.213 78.5936 213.213 78.138 213.213 77.6509C213.794 77.6509 214.336 77.6509 214.928 77.6509C214.928 78.1223 214.928 78.5779 214.928 79.086C214.388 79.086 213.829 79.086 213.213 79.086Z" fill="white"/>
<path d="M189.545 79.1043C188.927 79.1043 188.383 79.1043 187.803 79.1043C187.803 78.6137 187.803 78.1581 187.803 77.6604C188.389 77.6604 188.948 77.6604 189.545 77.6604C189.545 78.1493 189.545 78.6049 189.545 79.1043Z" fill="white"/>
</svg>
