<svg width="21" height="21" viewBox="0 0 21 21" fill="none" xmlns="http://www.w3.org/2000/svg">
<path d="M10.8774 0.99585C8.91928 0.99585 7.00509 1.57651 5.37694 2.66441C3.74879 3.7523 2.47981 5.29857 1.73045 7.10767C0.981096 8.91677 0.785031 10.9075 1.16705 12.828C1.54907 14.7485 2.49201 16.5126 3.87664 17.8973C5.26126 19.2819 7.02539 20.2248 8.94592 20.6069C10.8665 20.9889 12.8571 20.7928 14.6662 20.0435C16.4753 19.2941 18.0216 18.0251 19.1095 16.397C20.1974 14.7688 20.7781 12.8546 20.7781 10.8965C20.7729 8.27224 19.7282 5.75696 17.8726 3.90134C16.017 2.04573 13.5017 1.00098 10.8774 0.99585V0.99585ZM10.8774 19.6323C9.14965 19.6323 7.46066 19.12 6.02406 18.1601C4.58746 17.2002 3.46776 15.8358 2.80657 14.2395C2.14537 12.6433 1.97237 10.8868 2.30945 9.1922C2.64652 7.49761 3.47853 5.94103 4.70026 4.7193C5.92199 3.49757 7.47857 2.66556 9.17316 2.32849C10.8677 1.99141 12.6242 2.16441 14.2205 2.82561C15.8168 3.4868 17.1811 4.6065 18.141 6.0431C19.1009 7.4797 19.6133 9.16869 19.6133 10.8965C19.6107 13.2126 18.6895 15.4331 17.0518 17.0708C15.414 18.7085 13.1935 19.6298 10.8774 19.6323ZM14.5659 9.34344C14.5633 8.57193 14.2557 7.83275 13.7102 7.2872C13.1646 6.74166 12.4255 6.43405 11.654 6.43149H8.54788C8.39342 6.43149 8.24529 6.49285 8.13607 6.60207C8.02685 6.71128 7.96549 6.85942 7.96549 7.01388V14.7791C7.96549 14.9335 8.02685 15.0817 8.13607 15.1909C8.24529 15.3001 8.39342 15.3615 8.54788 15.3615C8.70234 15.3615 8.85047 15.3001 8.95969 15.1909C9.06891 15.0817 9.13027 14.9335 9.13027 14.7791V12.2554H11.5084L13.5079 15.1091C13.5507 15.1722 13.6056 15.2262 13.6696 15.2678C13.7335 15.3094 13.8051 15.3378 13.8801 15.3513C13.9551 15.3649 14.0321 15.3633 14.1066 15.3467C14.181 15.3301 14.2514 15.2988 14.3135 15.2547C14.3767 15.2119 14.4306 15.1569 14.4722 15.093C14.5138 15.0291 14.5422 14.9575 14.5558 14.8825C14.5693 14.8074 14.5678 14.7305 14.5512 14.656C14.5346 14.5816 14.5033 14.5112 14.4591 14.4491L12.7702 12.0321C13.3024 11.8126 13.7574 11.4398 14.0771 10.961C14.3969 10.4822 14.567 9.91917 14.5659 9.34344V9.34344ZM11.654 11.0906H9.13027V7.59627H11.654C12.1173 7.59627 12.5617 7.78034 12.8894 8.108C13.217 8.43566 13.4011 8.88006 13.4011 9.34344C13.4011 9.80681 13.217 10.2512 12.8894 10.5789C12.5617 10.9065 12.1173 11.0906 11.654 11.0906V11.0906Z" fill="white"/>
</svg>
